<?xml version="1.0" standalone="no"?>
<!DOCTYPE svg PUBLIC "-//W3C//DTD SVG 20010904//EN"
 "http://www.w3.org/TR/2001/REC-SVG-20010904/DTD/svg10.dtd">
<svg version="1.0" xmlns="http://www.w3.org/2000/svg"
 width="261.000000pt" height="261.000000pt" viewBox="0 0 261.000000 261.000000"
 preserveAspectRatio="xMidYMid meet">
<metadata>
Created by potrace 1.14, written by Peter Selinger 2001-2017
</metadata>
<g transform="translate(0.000000,261.000000) scale(0.100000,-0.100000)"
fill="#000000" stroke="none">
<path d="M778 2065 c-2 -2 -29 -6 -61 -10 -130 -14 -280 -86 -389 -184 -152
-138 -236 -323 -243 -534 -11 -358 197 -660 525 -758 98 -29 266 -32 354 -5
54 16 61 16 98 1 54 -21 318 -20 360 1 25 13 32 13 58 -1 27 -14 90 -15 503
-13 470 3 472 3 503 25 55 39 64 73 64 237 0 157 -8 194 -51 232 -40 35 -75
40 -306 39 -123 -1 -224 2 -224 5 -1 3 -3 194 -4 425 -2 465 -1 459 -67 507
-32 22 -40 23 -220 23 -174 0 -189 -2 -215 -21 -49 -36 -66 -79 -67 -159 l0
-72 -44 48 c-82 92 -226 170 -362 198 -49 10 -206 21 -212 16z m221 -164 c65
-17 173 -77 219 -120 43 -41 98 -118 90 -126 -3 -3 -49 -38 -103 -79 l-99 -74
-28 39 c-63 87 -167 135 -277 127 -114 -8 -199 -70 -252 -182 -93 -199 -9
-454 171 -520 121 -44 251 -14 358 81 42 38 61 78 39 85 -7 2 -60 3 -119 2
l-108 -1 0 102 0 102 233 -1 232 -1 0 -315 0 -315 -112 0 c-70 -1 -114 3 -116
10 -2 5 -3 31 -3 57 2 50 2 50 -49 12 -70 -51 -199 -93 -270 -88 -124 9 -201
29 -279 74 -188 107 -290 293 -295 534 -6 289 178 531 456 601 66 16 241 14
312 -4z m814 10 c4 -1 7 -217 7 -481 l0 -480 293 0 292 0 -1 -112 c-1 -62 -2
-118 -3 -123 -1 -7 -147 -10 -428 -10 l-428 0 -3 602 -2 602 27 3 c23 2 217 2
246 -1z m-898 -411 l30 -20 -45 0 c-33 0 -58 -8 -88 -27 -55 -36 -67 -76 -66
-222 1 -110 -4 -125 -31 -97 -77 77 -78 262 -2 345 49 53 137 62 202 21z m483
5 c0 -23 -4 -25 -42 -25 l-41 1 28 17 c15 9 27 20 27 24 0 5 6 8 14 8 8 0 14
-10 14 -25z"/>
</g>
</svg>
